<svg width="256" height="256" viewBox="0 0 128 128" xmlns="http://www.w3.org/2000/svg" role="img" aria-label="cuircle-cart swirl logo">
  <defs>
    <radialGradient id="halo" cx="50%" cy="50%" r="65%">
      <stop offset="0%" stop-color="#0f172a" stop-opacity="0.35"/>
      <stop offset="100%" stop-color="#0f172a" stop-opacity="0"/>
    </radialGradient>
    <linearGradient id="blade-a" x1="0%" y1="15%" x2="100%" y2="85%">
      <stop offset="0%" stop-color="#7c2df5"/>
      <stop offset="45%" stop-color="#5c35f7"/>
      <stop offset="100%" stop-color="#0ea5e9"/>
    </linearGradient>
    <linearGradient id="blade-b" x1="100%" y1="0%" x2="0%" y2="100%">
      <stop offset="0%" stop-color="#9333ea"/>
      <stop offset="50%" stop-color="#3b82f6"/>
      <stop offset="100%" stop-color="#14b8a6"/>
    </linearGradient>
  </defs>
  <circle cx="64" cy="64" r="54" fill="url(#halo)"/>

  <g fill="none" stroke-linecap="round" stroke-linejoin="round">
    <g stroke="url(#blade-a)" stroke-width="10">
      <path d="M64 10c-7.5 0-14.7 2.7-20.4 7.6l7 7c3.7-3 8.3-4.6 13.1-4.6 11.5 0 20.8 9.3 20.8 20.8 0 4.8-1.6 9.4-4.6 13.1l7 7c4.9-5.7 7.6-12.9 7.6-20.4C94.5 23.7 80.8 10 64 10z"/>
      <path d="M37.1 15.9c-6.5 3.7-11.3 9.8-13.2 17l9.3 2.4c1.4-5.2 4.7-9.6 9.3-12.3 9.9-5.7 22.6-2.3 28.3 7.6 2.6 4.5 3.3 9.8 2 14.9l9.3 2.4c2.4-8.9 1.2-18.4-3.6-26.4C71.6 6.4 53.4 5 37.1 15.9z"/>
    </g>

    <g stroke="url(#blade-b)" stroke-width="10">
      <path d="M19.2 39.5c-1.9 7.2-1.1 14.8 2.1 21.4l8.7-4c-2.2-4.6-2.8-9.9-1.5-14.9 3.1-11.1 14.6-17.6 25.7-14.5 4.9 1.4 9.1 4.6 11.9 9l8.7-4c-4.7-8-12.3-14-21.4-16.6-12.7-3.6-25.9 2.8-33.1 15.6z"/>
      <path d="M28.5 88.1c4.7 8.1 12.4 14.2 21.6 16.7l2.5-9.5c-5.3-1.4-9.9-4.8-12.8-9.4-6-9.9-2.8-22.9 7.1-28.9 4.4-2.6 9.7-3.3 14.9-2l2.5-9.5c-9-2.5-18.8-1-26.8 4.2-10.7 6.6-14.1 20.6-8.9 31.4z"/>
    </g>
  </g>

  <circle cx="64" cy="64" r="8.5" fill="#f8fafc" />
  <circle cx="64" cy="64" r="5" fill="#0b1024" />
</svg>
